<svg width="192" height="192" viewBox="0 0 192 192" fill="none" xmlns="http://www.w3.org/2000/svg">
<path fill-rule="evenodd" clip-rule="evenodd" d="M45.4331 91.4489H11.4274C11.4839 99.4769 13.5757 106.346 17.7027 112.056C21.8863 117.766 27.879 122.119 35.6809 125.115C43.5392 128.112 52.9523 129.61 63.9201 129.61C68.9084 129.61 73.6132 129.248 78.0344 128.524L66.3228 183.573H133.317C142.193 183.573 150.079 181.905 156.977 178.569C163.93 175.234 169.386 170.626 173.343 164.746C177.301 158.867 179.28 152.139 179.28 144.564C179.28 138.175 177.103 132.804 172.75 128.451C168.397 124.098 162.998 121.186 156.553 119.716L156.637 119.038C162.291 117.964 167.266 115.985 171.563 113.102C175.916 110.162 179.308 106.487 181.739 102.077C184.226 97.6678 185.47 92.721 185.47 87.2371C185.47 82.3751 184.113 77.9936 181.4 74.0927C178.743 70.1353 174.7 66.9976 169.273 64.6796C163.902 62.3617 157.174 61.2027 149.09 61.2027H103.015C98.6452 58.6865 93.2457 56.5005 86.8167 54.6447L73.4179 50.7438C68.4994 49.2739 65.0508 47.6626 63.072 45.91C61.1499 44.1009 60.1888 41.9808 60.1888 39.5498C60.1888 37.6277 60.8106 35.9316 62.0544 34.4617C63.3547 32.9353 65.1638 31.748 67.4818 30.9C69.8562 29.9954 72.5982 29.5432 75.7076 29.5432C79.0997 29.5432 82.0678 30.052 84.6119 31.0696C87.2125 32.0872 89.2477 33.5006 90.7176 35.3097C92.1875 37.1188 92.9508 39.2389 93.0073 41.6699H125.826C125.769 33.5854 123.678 26.6599 119.55 20.8933C115.48 15.1267 109.629 10.717 101.996 7.66413C94.4207 4.55471 85.3751 3 74.8596 3C64.966 3 56.1465 4.69605 48.4012 8.08815C40.7125 11.4802 34.6632 16.2857 30.2535 22.5046C25.8438 28.6669 23.6389 35.9033 23.6389 44.214C23.6389 52.5812 26.296 59.5632 31.6103 65.1602C36.9246 70.7006 44.6982 75.0255 54.931 78.1349L67.7362 82.0359C73.5027 83.7884 77.234 85.4562 78.9301 87.0392C80.6827 88.5656 81.559 90.4596 81.559 92.721C81.559 94.7562 80.8523 96.5371 79.4389 98.0635C78.0821 99.59 76.1316 100.805 73.5875 101.71C71.1 102.558 68.1037 102.982 64.5985 102.982C61.2629 102.982 58.1818 102.502 55.355 101.54C52.5848 100.523 50.3234 99.1377 48.5708 97.3851C46.8182 95.6325 45.7723 93.6538 45.4331 91.4489ZM117.374 108.353L122.632 83.5058H136.539C140.892 83.5058 144.171 84.4669 146.376 86.3891C148.581 88.3112 149.684 90.7705 149.684 93.7669C149.684 96.5371 148.977 99.0246 147.564 101.229C146.15 103.434 144.171 105.187 141.627 106.487C139.083 107.731 136.087 108.353 132.638 108.353H117.374ZM124.158 158.895H106.689L112.625 130.656H128.398C131.734 130.656 134.504 131.136 136.709 132.098C138.97 133.059 140.666 134.415 141.797 136.168C142.928 137.864 143.493 139.899 143.493 142.274C143.493 145.609 142.702 148.549 141.119 151.093C139.592 153.581 137.387 155.503 134.504 156.86C131.621 158.217 128.172 158.895 124.158 158.895Z" fill="#0000FF"/>
<path d="M69.4326 7.67736C80.0159 7.6774 89.1605 9.24167 96.8467 12.3951C104.589 15.4922 110.566 19.9828 114.733 25.8844L115.123 26.442C119.093 32.2378 121.093 39.1325 121.148 47.0924L121.153 47.8473H86.8477L86.8301 47.1149C86.7772 44.8424 86.0683 42.8838 84.708 41.2096C83.3346 39.5194 81.4148 38.1746 78.9111 37.1949L78.9062 37.193C76.4691 36.2181 73.5989 35.7203 70.2803 35.7203C67.2423 35.7203 64.5938 36.1622 62.3213 37.0279L62.3125 37.0319C60.0882 37.8456 58.3974 38.9679 57.1982 40.3756L57.1973 40.3746C56.0689 41.7089 55.5117 43.2335 55.5117 44.9772C55.5117 47.1797 56.3708 49.1053 58.1523 50.7848C60.0052 52.4209 63.3172 53.9913 68.1992 55.4508H68.2002L81.5967 59.3512C87.9807 61.194 93.3809 63.3689 97.7852 65.8805H143.663C151.812 65.8805 158.648 67.0475 164.141 69.4176L164.654 69.6412C169.923 71.9786 173.918 75.1212 176.587 79.0914H176.588C179.391 83.1211 180.793 87.6533 180.793 92.6647C180.793 98.2636 179.521 103.336 176.968 107.866L176.969 107.867C174.478 112.385 171.002 116.148 166.555 119.151L166.553 119.152C162.596 121.807 158.084 123.702 153.027 124.849C158.843 126.455 163.79 129.286 167.853 133.348C172.352 137.848 174.603 143.412 174.603 149.991C174.603 157.705 172.585 164.58 168.538 170.592C164.5 176.592 158.937 181.284 151.874 184.672C144.86 188.064 136.86 189.75 127.89 189.75H59.9688L60.1621 188.844L71.6465 134.86C67.4985 135.478 63.1138 135.788 58.4932 135.788C47.4604 135.788 37.9516 134.281 29.9863 131.244L29.9844 131.243C22.073 128.204 15.9529 123.772 11.6699 117.926L11.668 117.922C7.43717 112.069 5.30747 105.043 5.25 96.8815L5.24512 96.1266H40.6494L40.7471 96.7623C41.0593 98.792 42.021 100.629 43.6738 102.282C45.3358 103.944 47.4981 105.275 50.1846 106.262C52.9208 107.191 55.9141 107.66 59.1709 107.66C62.6158 107.66 65.5231 107.242 67.9102 106.429C70.3715 105.554 72.2012 104.399 73.4512 102.993L73.4609 102.981C74.7491 101.59 75.3818 99.9898 75.3818 98.1481C75.3818 96.1104 74.6039 94.4203 73.0098 93.0319L73 93.024L72.9912 93.0153C72.2331 92.3077 70.9644 91.5352 69.126 90.7135C67.2989 89.8969 64.9566 89.0523 62.0908 88.1813L62.0898 88.1803L49.2852 84.2799C38.9755 81.1471 31.0729 76.7694 25.6416 71.107L25.6387 71.1041C20.1804 65.3555 17.4619 58.1828 17.4619 49.6412C17.4619 41.1912 19.7055 33.799 24.2139 27.4977C28.7097 21.1574 34.8715 16.2707 42.6709 12.8297L42.6729 12.8287C50.5278 9.38862 59.4529 7.67736 69.4326 7.67736ZM102.186 163.573H118.73C122.662 163.573 125.996 162.908 128.757 161.609C131.52 160.308 133.609 158.48 135.052 156.129L135.055 156.125C136.556 153.713 137.315 150.913 137.315 147.701C137.315 145.45 136.781 143.565 135.745 142.011L135.739 142.003V142.002C134.704 140.397 133.136 139.128 130.988 138.215L130.981 138.213C128.9 137.305 126.24 136.834 122.971 136.834H107.807L102.186 163.573ZM112.872 113.03H127.211C130.567 113.03 133.444 112.425 135.864 111.243C138.298 109.998 140.171 108.334 141.505 106.253C142.836 104.176 143.506 101.829 143.506 99.194C143.506 96.4084 142.493 94.1572 140.456 92.3815C138.441 90.6249 135.37 89.6833 131.112 89.6832H117.812L112.872 113.03Z" fill="white" stroke="black" stroke-width="1.5"/>
</svg>
